<?xml version="1.0" encoding="UTF-8" standalone="no"?>
<!DOCTYPE svg PUBLIC "-//W3C//DTD SVG 1.1//EN" "http://www.w3.org/Graphics/SVG/1.1/DTD/svg11.dtd">
<svg width="100%" height="100%" viewBox="0 0 700 700" version="1.1" xmlns="http://www.w3.org/2000/svg" xmlns:xlink="http://www.w3.org/1999/xlink" xml:space="preserve" xmlns:serif="http://www.serif.com/" style="fill-rule:evenodd;clip-rule:evenodd;stroke-linejoin:round;stroke-miterlimit:2;">
    <g id="Layer_3" transform="matrix(0.975844,0,0,0.846121,0,0)">
        <g transform="matrix(1.71216,0,0,1.97466,38.0281,-297.226)">
            <path d="M202.472,555.358C221.369,555.304 240.253,554.345 259.059,552.482C266.767,551.712 274.431,550.508 282.491,550.677C277.925,543.938 236.645,540.968 220.276,540.352C217.914,522.566 215.655,505.191 213.291,487.831C209.991,463.589 207.355,439.224 202.984,415.173C200.49,401.448 202.16,389.484 209.813,378.102C210.207,377.516 210.48,376.85 210.841,376.242C218.181,363.833 227.249,352.848 238.07,343.089C269.855,342.236 301.547,341.645 334.107,346.61C333.098,344.899 332.94,344.307 332.553,344.032C331.287,343.13 330.028,342.114 328.605,341.545C306.595,332.734 283.468,328.81 259.371,326.216C267.674,320.172 276.015,315.411 284.525,310.964C303.842,300.867 324.104,293.129 345.056,287.125C347.481,286.43 350.473,286.37 352.314,282.151C322.319,282.079 295.682,292.464 268.913,302.161C242.294,311.804 216.816,323.709 193.782,341.906C193.476,342.146 193.172,342.387 192.87,342.629C192.86,342.367 192.853,342.106 192.844,341.844C192.312,325.846 192.651,311.273 195.029,296.758C197.44,282.055 201.354,267.8 205.928,253.618C210.534,239.323 219.75,227.694 227.408,215.123C225.395,213.035 223.764,213.28 222.042,213.757C218.303,214.795 214.905,216.531 211.678,218.64C198.88,227.016 189.992,238.877 182.154,251.661C180.94,253.643 179.759,255.646 178.54,257.676C150.788,236.176 117.031,217.025 107.899,218.662C129.181,238.349 150.126,257.108 169.219,278.061C160.509,299.498 154.889,321.778 150.538,344.42C147.238,344.206 144.904,342.758 142.395,341.885C106.618,329.445 69.894,329.707 32.901,333.813C29.184,334.226 25.237,334.664 22.862,338.33C23.442,341.689 25.852,342.812 28.559,343.35C32.174,344.068 35.834,344.564 39.484,345.102C62.649,348.519 85.851,351.771 108.496,357.922C121.101,361.346 133.346,365.777 145.049,371.913C134.777,427.709 122.932,483.019 119.917,539.705C114.162,540.039 109.073,540.401 103.979,540.619C87.946,541.304 71.924,542.107 56.09,544.951C53.797,545.363 51.33,545.569 49.687,547.674C50.985,549.56 52.933,549.707 54.666,550.112C62.846,552.027 71.207,552.649 79.549,553.336C97.401,554.808 115.294,555.385 133.205,555.479C134.31,555.485 135.414,555.82 136.517,556.003L199.645,556.003C200.463,555.243 201.492,555.361 202.472,555.358Z" style="fill:rgb(150,156,160);fill-rule:nonzero;"/>
        </g>
        <g transform="matrix(1.71216,0,0,1.97466,38.0281,-297.226)">
            <path d="M259.678,235.476C245.114,235.566 233.18,247.498 233.081,262.073C232.985,276.74 245.096,288.854 259.893,288.878C274.69,288.902 286.678,276.875 286.64,262.078C286.597,247.325 274.496,235.385 259.678,235.476ZM167.252,164C154.685,163.928 144.498,173.916 144.574,186.229C144.653,198.471 154.605,208.32 166.914,208.349C179.222,208.379 189.229,198.561 189.31,186.353C189.393,174.108 179.488,164.071 167.252,164ZM128.517,311.713C139.239,311.598 147.791,302.821 147.753,291.977C147.713,281.065 139.173,272.678 128.178,272.742C117.369,272.805 108.552,281.696 108.783,292.305C109.02,303.044 117.948,311.825 128.517,311.713ZM374.54,319.535C374.526,309.86 366.51,301.868 356.906,301.954C347.25,302.038 339.423,310.049 339.509,319.756C339.593,329.248 347.379,337.026 356.913,337.144C366.47,337.263 374.553,329.187 374.54,319.535ZM68.229,236.128C59.484,236.095 52.509,242.468 52.438,250.55C52.369,258.57 59.445,265.19 68.083,265.19C76.723,265.19 83.62,258.65 83.572,250.476C83.524,242.48 76.772,236.161 68.229,236.128ZM333.802,225.265C325.962,225.254 319.305,231.774 319.312,239.455C319.322,247.157 325.985,253.862 333.669,253.896C341.432,253.933 347.999,247.397 348.051,239.581C348.121,231.744 341.813,225.335 333.963,225.265L333.802,225.265ZM20.365,327.111C31.427,326.993 40.252,317.938 40.211,306.745C40.171,295.492 31.361,286.834 20.018,286.901C8.864,286.965 -0.236,296.143 0.005,307.086C0.247,318.168 9.458,327.229 20.365,327.111Z" style="fill:rgb(133,167,106);fill-rule:nonzero;"/>
        </g>
    </g>
</svg>
